{
  "accessors": [
    {
      "bufferView": 2,
      "componentType": 5126,
      "count": 333,
      "max": [
        0.016685999929904938,
        0.053637001663446426,
        1.4578319787979126
      ],
      "min": [
        -0.10543700307607651,
        -0.026621000841259956,
        1.3722929954528809
      ],
      "type": "VEC3"
    },
    {
      "bufferView": 2,
      "byteOffset": 3996,
      "componentType": 5126,
      "count": 333,
      "max": [
        0.9900252819061279,
        0.9999227523803711,
        0.9945982098579407
      ],
      "min": [
        -0.9900252819061279,
        -0.9918922185897827,
        -0.9925863146781921
      ],
      "type": "VEC3"
    },
    {
      "bufferView": 1,
      "componentType": 5126,
      "count": 333,
      "max": [
        -15.041020393371582,
        16.954071044921875
      ],
      "min": [
        -15.57886028289795,
        16.262699127197266
      ],
      "type": "VEC2"
    },
    {
      "bufferView": 0,
      "componentType": 5125,
      "count": 1758,
      "type": "SCALAR"
    },
    {
      "bufferView": 2,
      "byteOffset": 7992,
      "componentType": 5126,
      "count": 7342,
      "max": [
        0.3079870045185089,
        0.22517099976539612,
        1.3823210000991821
      ],
      "min": [
        -0.3967379927635193,
        -0.108364999294281,
        -0.004046999849379063
      ],
      "type": "VEC3"
    },
    {
      "bufferView": 2,
      "byteOffset": 96096,
      "componentType": 5126,
      "count": 7342,
      "max": [
        0.999870777130127,
        0.9999719858169556,
        0.9954516291618347
      ],
      "min": [
        -0.999870777130127,
        -0.9999356269836426,
        -0.9944443702697754
      ],
      "type": "VEC3"
    },
    {
      "bufferView": 1,
      "byteOffset": 2664,
      "componentType": 5126,
      "count": 7342,
      "max": [
        -15.006349563598633,
        16.995620727539063
      ],
      "min": [
        -15.997440338134766,
        16.003419876098633
      ],
      "type": "VEC2"
    },
    {
      "bufferView": 0,
      "byteOffset": 7032,
      "componentType": 5125,
      "count": 37068,
      "type": "SCALAR"
    },
    {
      "bufferView": 2,
      "byteOffset": 184200,
      "componentType": 5126,
      "count": 194,
      "max": [
        -0.009991999715566635,
        0.004275000188499689,
        1.4834599494934082
      ],
      "min": [
        -0.07875899970531464,
        0.0011050000321120024,
        1.4685020446777344
      ],
      "type": "VEC3"
    },
    {
      "bufferView": 2,
      "byteOffset": 186528,
      "componentType": 5126,
      "count": 194,
      "max": [
        0.4684068560600281,
        -0.8835129141807556,
        0.3717835545539856
      ],
      "min": [
        -0.4684068560600281,
        -0.9944934844970703,
        -0.3717835545539856
      ],
      "type": "VEC3"
    },
    {
      "bufferView": 1,
      "byteOffset": 61400,
      "componentType": 5126,
      "count": 194,
      "max": [
        -15.078129768371582,
        16.509519577026367
      ],
      "min": [
        -15.14696979522705,
        16.37255859375
      ],
      "type": "VEC2"
    },
    {
      "bufferView": 0,
      "byteOffset": 155304,
      "componentType": 5125,
      "count": 1008,
      "type": "SCALAR"
    },
    {
      "bufferView": 2,
      "byteOffset": 188856,
      "componentType": 5126,
      "count": 2972,
      "max": [
        0.05180700123310089,
        0.1770550012588501,
        1.5603350400924683
      ],
      "min": [
        -0.14056000113487244,
        -0.02501799911260605,
        1.2751059532165527
      ],
      "type": "VEC3"
    },
    {
      "bufferView": 2,
      "byteOffset": 224520,
      "componentType": 5126,
      "count": 2972,
      "max": [
        0.9993032217025757,
        0.9997339844703674,
        1.0
      ],
      "min": [
        -0.9993302822113037,
        -0.9999988079071045,
        -1.0
      ],
      "type": "VEC3"
    },
    {
      "bufferView": 1,
      "byteOffset": 62952,
      "componentType": 5126,
      "count": 2972,
      "max": [
        -15.006839752197266,
        16.99742889404297
      ],
      "min": [
        -15.995260238647461,
        16.003419876098633
      ],
      "type": "VEC2"
    },
    {
      "bufferView": 0,
      "byteOffset": 159336,
      "componentType": 5125,
      "count": 15924,
      "type": "SCALAR"
    },
    {
      "bufferView": 2,
      "byteOffset": 260184,
      "componentType": 5126,
      "count": 1945,
      "max": [
        0.06036899983882904,
        0.1831659972667694,
        1.5854949951171875
      ],
      "min": [
        -0.14406399428844452,
        -0.0737679973244667,
        1.0876840353012085
      ],
      "type": "VEC3"
    },
    {
      "bufferView": 2,
      "byteOffset": 283524,
      "componentType": 5126,
      "count": 1945,
      "max": [
        0.9993908405303955,
        0.9998557567596436,
        0.9974043965339661
      ],
      "min": [
        -0.999885082244873,
        -0.9959263205528259,
        -0.982335090637207
      ],
      "type": "VEC3"
    },
    {
      "bufferView": 1,
      "byteOffset": 86728,
      "componentType": 5126,
      "count": 1945,
      "max": [
        -15.008790016174316,
        16.994150161743164
      ],
      "min": [
        -15.99116039276123,
        16.006839752197266
      ],
      "type": "VEC2"
    },
    {
      "bufferView": 0,
      "byteOffset": 223032,
      "componentType": 5125,
      "count": 8898,
      "type": "SCALAR"
    },
    {
      "bufferView": 2,
      "byteOffset": 306864,
      "componentType": 5126,
      "count": 480,
      "max": [
        -0.005249999929219484,
        0.02226799912750721,
        1.4894429445266724
      ],
      "min": [
        -0.08349999785423279,
        0.0011050000321120024,
        1.4625200033187866
      ],
      "type": "VEC3"
    },
    {
      "bufferView": 2,
      "byteOffset": 312624,
      "componentType": 5126,
      "count": 480,
      "max": [
        0.9960402250289917,
        0.7364688515663147,
        1.0
      ],
      "min": [
        -0.996049165725708,
        -0.8528167605400085,
        -1.0
      ],
      "type": "VEC3"
    },
    {
      "bufferView": 1,
      "byteOffset": 102288,
      "componentType": 5126,
      "count": 480,
      "max": [
        -15.04736042022705,
        16.571041107177734
      ],
      "min": [
        -15.177729606628418,
        16.311038970947266
      ],
      "type": "VEC2"
    },
    {
      "bufferView": 0,
      "byteOffset": 258624,
      "componentType": 5125,
      "count": 2592,
      "type": "SCALAR"
    },
    {
      "bufferView": 2,
      "byteOffset": 318384,
      "componentType": 5126,
      "count": 194,
      "max": [
        -0.009991999715566635,
        0.004275000188499689,
        1.4834599494934082
      ],
      "min": [
        -0.07875899970531464,
        0.0011050000321120024,
        1.4685020446777344
      ],
      "type": "VEC3"
    },
    {
      "bufferView": 2,
      "byteOffset": 320712,
      "componentType": 5126,
      "count": 194,
      "max": [
        0.4684068560600281,
        -0.8835129141807556,
        0.3717835545539856
      ],
      "min": [
        -0.4684068560600281,
        -0.9944934844970703,
        -0.3717835545539856
      ],
      "type": "VEC3"
    },
    {
      "bufferView": 1,
      "byteOffset": 106128,
      "componentType": 5126,
      "count": 194,
      "max": [
        -15.078129768371582,
        16.509519577026367
      ],
      "min": [
        -15.14696979522705,
        16.37255859375
      ],
      "type": "VEC2"
    },
    {
      "bufferView": 0,
      "byteOffset": 268992,
      "componentType": 5125,
      "count": 1008,
      "type": "SCALAR"
    }
  ],
  "asset": {
    "extras": {
      "author": "fabien.rdz.38 (https://sketchfab.com/fabien.rdz.38)",
      "license": "CC-BY-4.0 (http://creativecommons.org/licenses/by/4.0/)",
      "source": "https://sketchfab.com/3d-models/fortnite-skin-ikonik-x-nike-1725c2cb5af14dfca715df015cecb3fa",
      "title": "Fortnite skin ikonik x Nike"
    },
    "generator": "Sketchfab-12.65.0",
    "version": "2.0"
  },
  "bufferViews": [
    {
      "buffer": 0,
      "byteLength": 273024,
      "name": "floatBufferViews",
      "target": 34963
    },
    {
      "buffer": 0,
      "byteLength": 107680,
      "byteOffset": 273024,
      "byteStride": 8,
      "name": "floatBufferViews",
      "target": 34962
    },
    {
      "buffer": 0,
      "byteLength": 323040,
      "byteOffset": 380704,
      "byteStride": 12,
      "name": "floatBufferViews",
      "target": 34962
    }
  ],
  "buffers": [
    {
      "byteLength": 703744,
      "uri": "scene.bin"
    }
  ],
  "images": [
    {
      "uri": "textures/24_Body_1_16_16_baseColor.png"
    },
    {
      "uri": "textures/24_Hood_1_16_16_baseColor.png"
    }
  ],
  "materials": [
    {
      "doubleSided": true,
      "name": "24_Mask.Mask_1_16_16.001",
      "pbrMetallicRoughness": {
        "metallicFactor": 0.0,
        "roughnessFactor": 0.6
      }
    },
    {
      "doubleSided": true,
      "name": "24_Body_1_16_16",
      "pbrMetallicRoughness": {
        "baseColorTexture": {
          "index": 0
        },
        "metallicFactor": 0.0,
        "roughnessFactor": 0.6
      }
    },
    {
      "doubleSided": true,
      "name": "24_Eyes_1_16_16.001",
      "pbrMetallicRoughness": {
        "metallicFactor": 0.0,
        "roughnessFactor": 0.6
      }
    },
    {
      "doubleSided": true,
      "name": "24_Head_1_16_16.001",
      "pbrMetallicRoughness": {
        "baseColorFactor": [
          1.0,
          0.43425069249245785,
          0.43425069249245785,
          1.0
        ],
        "metallicFactor": 0.0,
        "roughnessFactor": 0.6
      }
    },
    {
      "doubleSided": true,
      "name": "24_Hood_1_16_16",
      "pbrMetallicRoughness": {
        "baseColorTexture": {
          "index": 1
        },
        "metallicFactor": 0.0,
        "roughnessFactor": 0.6
      }
    },
    {
      "doubleSided": true,
      "name": "27_EyesREF01_1_16_16.001",
      "pbrMetallicRoughness": {
        "baseColorFactor": [
          0.007726100576177697,
          0.007726100576177697,
          0.007726100576177697,
          1.0
        ],
        "metallicFactor": 0.0,
        "roughnessFactor": 0.6
      }
    },
    {
      "doubleSided": true,
      "name": "27_EyesREF02_1_16_16.001",
      "pbrMetallicRoughness": {
        "baseColorFactor": [
          0.0,
          0.0,
          0.0,
          1.0
        ],
        "metallicFactor": 0.0,
        "roughnessFactor": 0.6
      }
    }
  ],
  "meshes": [
    {
      "name": "Object_0",
      "primitives": [
        {
          "attributes": {
            "NORMAL": 1,
            "POSITION": 0,
            "TEXCOORD_0": 2
          },
          "indices": 3,
          "material": 0,
          "mode": 4
        }
      ]
    },
    {
      "name": "Object_1",
      "primitives": [
        {
          "attributes": {
            "NORMAL": 5,
            "POSITION": 4,
            "TEXCOORD_0": 6
          },
          "indices": 7,
          "material": 1,
          "mode": 4
        }
      ]
    },
    {
      "name": "Object_2",
      "primitives": [
        {
          "attributes": {
            "NORMAL": 9,
            "POSITION": 8,
            "TEXCOORD_0": 10
          },
          "indices": 11,
          "material": 2,
          "mode": 4
        }
      ]
    },
    {
      "name": "Object_3",
      "primitives": [
        {
          "attributes": {
            "NORMAL": 13,
            "POSITION": 12,
            "TEXCOORD_0": 14
          },
          "indices": 15,
          "material": 3,
          "mode": 4
        }
      ]
    },
    {
      "name": "Object_4",
      "primitives": [
        {
          "attributes": {
            "NORMAL": 17,
            "POSITION": 16,
            "TEXCOORD_0": 18
          },
          "indices": 19,
          "material": 4,
          "mode": 4
        }
      ]
    },
    {
      "name": "Object_5",
      "primitives": [
        {
          "attributes": {
            "NORMAL": 21,
            "POSITION": 20,
            "TEXCOORD_0": 22
          },
          "indices": 23,
          "material": 5,
          "mode": 4
        }
      ]
    },
    {
      "name": "Object_6",
      "primitives": [
        {
          "attributes": {
            "NORMAL": 25,
            "POSITION": 24,
            "TEXCOORD_0": 26
          },
          "indices": 27,
          "material": 6,
          "mode": 4
        }
      ]
    }
  ],
  "nodes": [
    {
      "children": [
        1
      ],
      "matrix": [
        1.0,
        0.0,
        0.0,
        0.0,
        0.0,
        2.220446049250313e-16,
        -1.0,
        0.0,
        0.0,
        1.0,
        2.220446049250313e-16,
        0.0,
        0.0,
        0.0,
        0.0,
        1.0
      ],
      "name": "Sketchfab_model"
    },
    {
      "children": [
        2,
        3,
        4,
        5,
        6,
        7,
        8
      ],
      "name": "0.obj.cleaner.materialmerger.gles"
    },
    {
      "mesh": 0,
      "name": "Object_2"
    },
    {
      "mesh": 1,
      "name": "Object_3"
    },
    {
      "mesh": 2,
      "name": "Object_4"
    },
    {
      "mesh": 3,
      "name": "Object_5"
    },
    {
      "mesh": 4,
      "name": "Object_6"
    },
    {
      "mesh": 5,
      "name": "Object_7"
    },
    {
      "mesh": 6,
      "name": "Object_8"
    }
  ],
  "samplers": [
    {
      "magFilter": 9729,
      "minFilter": 9987,
      "wrapS": 10497,
      "wrapT": 10497
    }
  ],
  "scene": 0,
  "scenes": [
    {
      "name": "Sketchfab_Scene",
      "nodes": [
        0
      ]
    }
  ],
  "textures": [
    {
      "sampler": 0,
      "source": 0
    },
    {
      "sampler": 0,
      "source": 1
    }
  ]
}
