{
    "asset" : {
        "generator" : "Khronos glTF Blender I/O v3.2.40",
        "version" : "2.0"
    },
    "scene" : 0,
    "scenes" : [
        {
            "name" : "Scene",
            "nodes" : [
                1,
                10
            ]
        }
    ],
    "nodes" : [
        {
            "name" : "0.obj.cleaner.materialmerger.gles"
        },
        {
            "children" : [
                0
            ],
            "name" : "Sketchfab_model",
            "rotation" : [
                -0.7071068286895752,
                0,
                0,
                0.7071067094802856
            ]
        },
        {
            "mesh" : 0,
            "name" : "Object_2"
        },
        {
            "mesh" : 1,
            "name" : "Object_3"
        },
        {
            "mesh" : 2,
            "name" : "Object_4"
        },
        {
            "mesh" : 3,
            "name" : "Object_5"
        },
        {
            "mesh" : 4,
            "name" : "Object_6"
        },
        {
            "mesh" : 5,
            "name" : "Object_7"
        },
        {
            "mesh" : 6,
            "name" : "Object_8"
        },
        {
            "children" : [
                2,
                3,
                4,
                5,
                6,
                7,
                8
            ],
            "name" : "0.obj.cleaner.materialmerger.gles.001"
        },
        {
            "children" : [
                9
            ],
            "name" : "Sketchfab_model.001",
            "rotation" : [
                -0.7071068286895752,
                0,
                0,
                0.7071067094802856
            ]
        }
    ],
    "materials" : [
        {
            "doubleSided" : true,
            "name" : "24_Mask.Mask_1_16_16.001",
            "pbrMetallicRoughness" : {
                "metallicFactor" : 0,
                "roughnessFactor" : 0.6000000238418579
            }
        },
        {
            "doubleSided" : true,
            "name" : "24_Body_1_16_16",
            "pbrMetallicRoughness" : {
                "baseColorTexture" : {
                    "index" : 0
                },
                "metallicFactor" : 0,
                "roughnessFactor" : 0.6000000238418579
            }
        },
        {
            "doubleSided" : true,
            "name" : "24_Eyes_1_16_16.001",
            "pbrMetallicRoughness" : {
                "metallicFactor" : 0,
                "roughnessFactor" : 0.6000000238418579
            }
        },
        {
            "doubleSided" : true,
            "name" : "24_Head_1_16_16.001",
            "pbrMetallicRoughness" : {
                "baseColorFactor" : [
                    1,
                    0.43425068259239197,
                    0.43425068259239197,
                    1
                ],
                "metallicFactor" : 0,
                "roughnessFactor" : 0.6000000238418579
            }
        },
        {
            "doubleSided" : true,
            "name" : "24_Hood_1_16_16",
            "pbrMetallicRoughness" : {
                "baseColorTexture" : {
                    "index" : 1
                },
                "metallicFactor" : 0,
                "roughnessFactor" : 0.6000000238418579
            }
        },
        {
            "doubleSided" : true,
            "name" : "27_EyesREF01_1_16_16.001",
            "pbrMetallicRoughness" : {
                "baseColorFactor" : [
                    0.007726100739091635,
                    0.007726100739091635,
                    0.007726100739091635,
                    1
                ],
                "metallicFactor" : 0,
                "roughnessFactor" : 0.6000000238418579
            }
        },
        {
            "doubleSided" : true,
            "name" : "27_EyesREF02_1_16_16.001",
            "pbrMetallicRoughness" : {
                "baseColorFactor" : [
                    0,
                    0,
                    0,
                    1
                ],
                "metallicFactor" : 0,
                "roughnessFactor" : 0.6000000238418579
            }
        }
    ],
    "meshes" : [
        {
            "name" : "Object_0.001",
            "primitives" : [
                {
                    "attributes" : {
                        "POSITION" : 0,
                        "NORMAL" : 1,
                        "TEXCOORD_0" : 2
                    },
                    "indices" : 3,
                    "material" : 0
                }
            ]
        },
        {
            "name" : "Object_1",
            "primitives" : [
                {
                    "attributes" : {
                        "POSITION" : 4,
                        "NORMAL" : 5,
                        "TEXCOORD_0" : 6
                    },
                    "indices" : 7,
                    "material" : 1
                }
            ]
        },
        {
            "name" : "Object_2",
            "primitives" : [
                {
                    "attributes" : {
                        "POSITION" : 8,
                        "NORMAL" : 9,
                        "TEXCOORD_0" : 10
                    },
                    "indices" : 11,
                    "material" : 2
                }
            ]
        },
        {
            "name" : "Object_3",
            "primitives" : [
                {
                    "attributes" : {
                        "POSITION" : 12,
                        "NORMAL" : 13,
                        "TEXCOORD_0" : 14
                    },
                    "indices" : 15,
                    "material" : 3
                }
            ]
        },
        {
            "name" : "Object_4",
            "primitives" : [
                {
                    "attributes" : {
                        "POSITION" : 16,
                        "NORMAL" : 17,
                        "TEXCOORD_0" : 18
                    },
                    "indices" : 19,
                    "material" : 4
                }
            ]
        },
        {
            "name" : "Object_5",
            "primitives" : [
                {
                    "attributes" : {
                        "POSITION" : 20,
                        "NORMAL" : 21,
                        "TEXCOORD_0" : 22
                    },
                    "indices" : 23,
                    "material" : 5
                }
            ]
        },
        {
            "name" : "Object_6",
            "primitives" : [
                {
                    "attributes" : {
                        "POSITION" : 24,
                        "NORMAL" : 25,
                        "TEXCOORD_0" : 26
                    },
                    "indices" : 11,
                    "material" : 6
                }
            ]
        }
    ],
    "textures" : [
        {
            "sampler" : 0,
            "source" : 0
        },
        {
            "sampler" : 0,
            "source" : 1
        }
    ],
    "images" : [
        {
            "bufferView" : 8,
            "mimeType" : "image/png",
            "name" : "24_Body_1_16_16_baseColor"
        },
        {
            "bufferView" : 21,
            "mimeType" : "image/png",
            "name" : "24_Hood_1_16_16_baseColor"
        }
    ],
    "accessors" : [
        {
            "bufferView" : 0,
            "componentType" : 5126,
            "count" : 333,
            "max" : [
                0.016685999929904938,
                0.053637001663446426,
                1.4578319787979126
            ],
            "min" : [
                -0.10543700307607651,
                -0.026621000841259956,
                1.3722929954528809
            ],
            "type" : "VEC3"
        },
        {
            "bufferView" : 1,
            "componentType" : 5126,
            "count" : 333,
            "type" : "VEC3"
        },
        {
            "bufferView" : 2,
            "componentType" : 5126,
            "count" : 333,
            "type" : "VEC2"
        },
        {
            "bufferView" : 3,
            "componentType" : 5123,
            "count" : 1758,
            "type" : "SCALAR"
        },
        {
            "bufferView" : 4,
            "componentType" : 5126,
            "count" : 7345,
            "max" : [
                0.3079870045185089,
                0.22517099976539612,
                1.3823210000991821
            ],
            "min" : [
                -0.3967379927635193,
                -0.108364999294281,
                -0.004046999849379063
            ],
            "type" : "VEC3"
        },
        {
            "bufferView" : 5,
            "componentType" : 5126,
            "count" : 7345,
            "type" : "VEC3"
        },
        {
            "bufferView" : 6,
            "componentType" : 5126,
            "count" : 7345,
            "type" : "VEC2"
        },
        {
            "bufferView" : 7,
            "componentType" : 5123,
            "count" : 37068,
            "type" : "SCALAR"
        },
        {
            "bufferView" : 9,
            "componentType" : 5126,
            "count" : 194,
            "max" : [
                -0.009991999715566635,
                0.004275000188499689,
                1.4834599494934082
            ],
            "min" : [
                -0.07875899970531464,
                0.0011050000321120024,
                1.4685020446777344
            ],
            "type" : "VEC3"
        },
        {
            "bufferView" : 10,
            "componentType" : 5126,
            "count" : 194,
            "type" : "VEC3"
        },
        {
            "bufferView" : 11,
            "componentType" : 5126,
            "count" : 194,
            "type" : "VEC2"
        },
        {
            "bufferView" : 12,
            "componentType" : 5123,
            "count" : 1008,
            "type" : "SCALAR"
        },
        {
            "bufferView" : 13,
            "componentType" : 5126,
            "count" : 2984,
            "max" : [
                0.05180700123310089,
                0.1770550012588501,
                1.5603350400924683
            ],
            "min" : [
                -0.14056000113487244,
                -0.02501799911260605,
                1.2751059532165527
            ],
            "type" : "VEC3"
        },
        {
            "bufferView" : 14,
            "componentType" : 5126,
            "count" : 2984,
            "type" : "VEC3"
        },
        {
            "bufferView" : 15,
            "componentType" : 5126,
            "count" : 2984,
            "type" : "VEC2"
        },
        {
            "bufferView" : 16,
            "componentType" : 5123,
            "count" : 15924,
            "type" : "SCALAR"
        },
        {
            "bufferView" : 17,
            "componentType" : 5126,
            "count" : 1945,
            "max" : [
                0.06036899983882904,
                0.1831659972667694,
                1.5854949951171875
            ],
            "min" : [
                -0.14406399428844452,
                -0.0737679973244667,
                1.0876840353012085
            ],
            "type" : "VEC3"
        },
        {
            "bufferView" : 18,
            "componentType" : 5126,
            "count" : 1945,
            "type" : "VEC3"
        },
        {
            "bufferView" : 19,
            "componentType" : 5126,
            "count" : 1945,
            "type" : "VEC2"
        },
        {
            "bufferView" : 20,
            "componentType" : 5123,
            "count" : 8898,
            "type" : "SCALAR"
        },
        {
            "bufferView" : 22,
            "componentType" : 5126,
            "count" : 480,
            "max" : [
                -0.005249999929219484,
                0.02226799912750721,
                1.4894429445266724
            ],
            "min" : [
                -0.08349999785423279,
                0.0011050000321120024,
                1.4625200033187866
            ],
            "type" : "VEC3"
        },
        {
            "bufferView" : 23,
            "componentType" : 5126,
            "count" : 480,
            "type" : "VEC3"
        },
        {
            "bufferView" : 24,
            "componentType" : 5126,
            "count" : 480,
            "type" : "VEC2"
        },
        {
            "bufferView" : 25,
            "componentType" : 5123,
            "count" : 2592,
            "type" : "SCALAR"
        },
        {
            "bufferView" : 26,
            "componentType" : 5126,
            "count" : 194,
            "max" : [
                -0.009991999715566635,
                0.004275000188499689,
                1.4834599494934082
            ],
            "min" : [
                -0.07875899970531464,
                0.0011050000321120024,
                1.4685020446777344
            ],
            "type" : "VEC3"
        },
        {
            "bufferView" : 27,
            "componentType" : 5126,
            "count" : 194,
            "type" : "VEC3"
        },
        {
            "bufferView" : 28,
            "componentType" : 5126,
            "count" : 194,
            "type" : "VEC2"
        }
    ],
    "bufferViews" : [
        {
            "buffer" : 0,
            "byteLength" : 3996,
            "byteOffset" : 0
        },
        {
            "buffer" : 0,
            "byteLength" : 3996,
            "byteOffset" : 3996
        },
        {
            "buffer" : 0,
            "byteLength" : 2664,
            "byteOffset" : 7992
        },
        {
            "buffer" : 0,
            "byteLength" : 3516,
            "byteOffset" : 10656
        },
        {
            "buffer" : 0,
            "byteLength" : 88140,
            "byteOffset" : 14172
        },
        {
            "buffer" : 0,
            "byteLength" : 88140,
            "byteOffset" : 102312
        },
        {
            "buffer" : 0,
            "byteLength" : 58760,
            "byteOffset" : 190452
        },
        {
            "buffer" : 0,
            "byteLength" : 74136,
            "byteOffset" : 249212
        },
        {
            "buffer" : 0,
            "byteLength" : 1088383,
            "byteOffset" : 323348
        },
        {
            "buffer" : 0,
            "byteLength" : 2328,
            "byteOffset" : 1411732
        },
        {
            "buffer" : 0,
            "byteLength" : 2328,
            "byteOffset" : 1414060
        },
        {
            "buffer" : 0,
            "byteLength" : 1552,
            "byteOffset" : 1416388
        },
        {
            "buffer" : 0,
            "byteLength" : 2016,
            "byteOffset" : 1417940
        },
        {
            "buffer" : 0,
            "byteLength" : 35808,
            "byteOffset" : 1419956
        },
        {
            "buffer" : 0,
            "byteLength" : 35808,
            "byteOffset" : 1455764
        },
        {
            "buffer" : 0,
            "byteLength" : 23872,
            "byteOffset" : 1491572
        },
        {
            "buffer" : 0,
            "byteLength" : 31848,
            "byteOffset" : 1515444
        },
        {
            "buffer" : 0,
            "byteLength" : 23340,
            "byteOffset" : 1547292
        },
        {
            "buffer" : 0,
            "byteLength" : 23340,
            "byteOffset" : 1570632
        },
        {
            "buffer" : 0,
            "byteLength" : 15560,
            "byteOffset" : 1593972
        },
        {
            "buffer" : 0,
            "byteLength" : 17796,
            "byteOffset" : 1609532
        },
        {
            "buffer" : 0,
            "byteLength" : 282656,
            "byteOffset" : 1627328
        },
        {
            "buffer" : 0,
            "byteLength" : 5760,
            "byteOffset" : 1909984
        },
        {
            "buffer" : 0,
            "byteLength" : 5760,
            "byteOffset" : 1915744
        },
        {
            "buffer" : 0,
            "byteLength" : 3840,
            "byteOffset" : 1921504
        },
        {
            "buffer" : 0,
            "byteLength" : 5184,
            "byteOffset" : 1925344
        },
        {
            "buffer" : 0,
            "byteLength" : 2328,
            "byteOffset" : 1930528
        },
        {
            "buffer" : 0,
            "byteLength" : 2328,
            "byteOffset" : 1932856
        },
        {
            "buffer" : 0,
            "byteLength" : 1552,
            "byteOffset" : 1935184
        }
    ],
    "samplers" : [
        {
            "magFilter" : 9729,
            "minFilter" : 9987
        }
    ],
    "buffers" : [
        {
            "byteLength" : 1936736,
            "uri" : "data:application/octet-stream;base64,"
        }
    ]
}
